<svg width="18" height="15" viewBox="0 0 18 15" fill="none" xmlns="http://www.w3.org/2000/svg">
<path d="M9 2.62499L8.595 3.01499C8.64747 3.06943 8.71038 3.11273 8.77997 3.14231C8.84955 3.17189 8.92439 3.18713 9 3.18713C9.07561 3.18713 9.15045 3.17189 9.22003 3.14231C9.28962 3.11273 9.35253 3.06943 9.405 3.01499L9 2.62499ZM7.0695 12.2415C5.9325 11.3452 4.68975 10.47 3.7035 9.35999C2.7375 8.27099 2.0625 7.00124 2.0625 5.35274H0.9375C0.9375 7.35224 1.77 8.87774 2.86275 10.107C3.93525 11.3145 5.30325 12.282 6.37275 13.125L7.0695 12.2415ZM2.0625 5.35274C2.0625 3.74024 2.97375 2.38724 4.218 1.81799C5.427 1.26524 7.0515 1.41149 8.595 3.01499L9.405 2.23574C7.575 0.33299 5.448 0.0187396 3.75 0.79499C2.0895 1.55474 0.9375 3.31874 0.9375 5.35274H2.0625ZM6.37275 13.125C6.7575 13.428 7.17 13.7505 7.58775 13.995C8.0055 14.2387 8.4825 14.4375 9 14.4375V13.3125C8.7675 13.3125 8.4945 13.2225 8.1555 13.0237C7.81575 12.8257 7.464 12.5527 7.0695 12.2415L6.37275 13.125ZM11.6273 13.125C12.6968 12.2812 14.0648 11.3152 15.1373 10.107C16.23 8.87699 17.0625 7.35224 17.0625 5.35274H15.9375C15.9375 7.00124 15.2625 8.27099 14.2965 9.35999C13.3103 10.47 12.0675 11.3452 10.9305 12.2415L11.6273 13.125ZM17.0625 5.35274C17.0625 3.31874 15.9113 1.55474 14.25 0.79499C12.552 0.0187396 10.4265 0.33299 8.595 2.23499L9.405 3.01499C10.9485 1.41224 12.573 1.26524 13.782 1.81799C15.0262 2.38724 15.9375 3.73949 15.9375 5.35274H17.0625ZM10.9305 12.2415C10.536 12.5527 10.1842 12.8257 9.8445 13.0237C9.5055 13.2217 9.2325 13.3125 9 13.3125V14.4375C9.5175 14.4375 9.9945 14.2387 10.4123 13.995C10.8308 13.7505 11.2425 13.428 11.6273 13.125L10.9305 12.2415Z" fill="#FAFAFA"/>
</svg>
