<svg width="56" height="56" viewBox="0 0 56 56" fill="none" xmlns="http://www.w3.org/2000/svg">
<path fill-rule="evenodd" clip-rule="evenodd" d="M28 50C40.1506 50 50 40.1506 50 28C50 15.8494 40.1506 6 28 6C15.8494 6 6 15.8494 6 28C6 40.1506 15.8494 50 28 50ZM29.65 21.4C29.65 20.9624 29.4762 20.5427 29.1667 20.2333C28.8573 19.9238 28.4376 19.75 28 19.75C27.5624 19.75 27.1427 19.9238 26.8333 20.2333C26.5238 20.5427 26.35 20.9624 26.35 21.4V26.35H21.4C20.9624 26.35 20.5427 26.5238 20.2333 26.8333C19.9238 27.1427 19.75 27.5624 19.75 28C19.75 28.4376 19.9238 28.8573 20.2333 29.1667C20.5427 29.4762 20.9624 29.65 21.4 29.65H26.35V34.6C26.35 35.0376 26.5238 35.4573 26.8333 35.7667C27.1427 36.0762 27.5624 36.25 28 36.25C28.4376 36.25 28.8573 36.0762 29.1667 35.7667C29.4762 35.4573 29.65 35.0376 29.65 34.6V29.65H34.6C35.0376 29.65 35.4573 29.4762 35.7667 29.1667C36.0762 28.8573 36.25 28.4376 36.25 28C36.25 27.5624 36.0762 27.1427 35.7667 26.8333C35.4573 26.5238 35.0376 26.35 34.6 26.35H29.65V21.4Z" fill="#FA9E31"/>
</svg>
