<svg width="20" height="20" viewBox="0 0 20 20" fill="none" xmlns="http://www.w3.org/2000/svg">
<path fill-rule="evenodd" clip-rule="evenodd" d="M10 20C15.523 20 20 15.523 20 10C20 4.477 15.523 0 10 0C4.477 0 0 4.477 0 10C0 15.523 4.477 20 10 20ZM10.75 7C10.75 6.80109 10.671 6.61032 10.5303 6.46967C10.3897 6.32902 10.1989 6.25 10 6.25C9.80109 6.25 9.61032 6.32902 9.46967 6.46967C9.32902 6.61032 9.25 6.80109 9.25 7V9.25H7C6.80109 9.25 6.61032 9.32902 6.46967 9.46967C6.32902 9.61032 6.25 9.80109 6.25 10C6.25 10.1989 6.32902 10.3897 6.46967 10.5303C6.61032 10.671 6.80109 10.75 7 10.75H9.25V13C9.25 13.1989 9.32902 13.3897 9.46967 13.5303C9.61032 13.671 9.80109 13.75 10 13.75C10.1989 13.75 10.3897 13.671 10.5303 13.5303C10.671 13.3897 10.75 13.1989 10.75 13V10.75H13C13.1989 10.75 13.3897 10.671 13.5303 10.5303C13.671 10.3897 13.75 10.1989 13.75 10C13.75 9.80109 13.671 9.61032 13.5303 9.46967C13.3897 9.32902 13.1989 9.25 13 9.25H10.75V7Z" fill="#FAFAFA"/>
</svg>
