<svg width="50" height="45" viewBox="0 0 50 45" fill="none" xmlns="http://www.w3.org/2000/svg">
<path d="M1.66663 25.6828C1.66663 18.5311 1.66663 14.9564 3.41429 12.3898C4.173 11.2736 5.14526 10.3188 6.27496 9.58044C7.95496 8.47677 10.0596 8.08244 13.282 7.94244C14.8196 7.94244 16.1426 6.79911 16.4436 5.31744C16.6737 4.23214 17.2713 3.25953 18.1356 2.56399C19 1.86846 20.0779 1.49266 21.1873 1.50011H28.8126C31.118 1.50011 33.1036 3.09844 33.5563 5.31744C33.8573 6.79911 35.1803 7.94244 36.718 7.94244C39.938 8.08244 42.0426 8.47911 43.725 9.58044C44.8566 10.3224 45.8296 11.2768 46.5856 12.3898C48.3333 14.9564 48.3333 18.5311 48.3333 25.6828C48.3333 32.8321 48.3333 36.4068 46.5856 38.9758C45.8256 40.0908 44.8536 41.0454 43.725 41.7851C41.1093 43.5001 37.467 43.5001 30.1846 43.5001H19.8153C12.533 43.5001 8.89063 43.5001 6.27496 41.7851C5.14689 41.0446 4.17564 40.0892 3.41663 38.9734C2.9109 38.2177 2.53766 37.3813 2.31296 36.5001M41.3333 17.8334H39" stroke="#666666" stroke-width="2.5" stroke-linecap="round"/>
</svg>
