<svg width="38" height="30" viewBox="0 0 38 30" fill="none" xmlns="http://www.w3.org/2000/svg">
<path d="M7.57673 19.3564C6.10241 19.3564 4.84924 18.8404 3.81722 17.8084C2.78519 16.7764 2.26918 15.5232 2.26918 14.0489V8.74135C2.26918 8.24008 2.43873 7.8199 2.77782 7.48081C3.11692 7.14171 3.5371 6.97217 4.03836 6.97217H25.3128C25.4602 5.99912 25.8583 5.12927 26.507 4.36262C27.1557 3.59598 27.9518 3.05048 28.8954 2.72613L35.3971 0.558881C35.8689 0.411449 36.3259 0.440935 36.7682 0.64734C37.2105 0.853744 37.5054 1.19284 37.6528 1.66462C37.8003 2.1364 37.7634 2.59344 37.5423 3.03574C37.3211 3.47803 36.9746 3.7729 36.5029 3.92033L30.0011 6.08758C29.6473 6.20552 29.3598 6.4193 29.1386 6.7289C28.9175 7.03851 28.8069 7.38498 28.8069 7.7683V14.0489C28.8069 15.5232 28.2909 16.7764 27.2589 17.8084C26.2269 18.8404 24.9737 19.3564 23.4994 19.3564H7.57673ZM12.8843 28.2024V24.664H2.26918C1.76791 24.664 1.34773 24.4944 1.00864 24.1553C0.669547 23.8163 0.5 23.3961 0.5 22.8948C0.5 22.3935 0.669547 21.9734 1.00864 21.6343C1.34773 21.2952 1.76791 21.1256 2.26918 21.1256H12.8843C13.8573 21.1256 14.6903 21.4721 15.3832 22.165C16.0762 22.858 16.4226 23.6909 16.4226 24.664V28.2024C16.4226 28.7036 16.2531 29.1238 15.914 29.4629C15.5749 29.802 15.1547 29.9715 14.6535 29.9715C14.1522 29.9715 13.732 29.802 13.3929 29.4629C13.0538 29.1238 12.8843 28.7036 12.8843 28.2024ZM19.961 28.2024V24.664C19.961 23.6909 20.3075 22.858 21.0004 22.165C21.6933 21.4721 22.5263 21.1256 23.4994 21.1256H34.1145C34.6157 21.1256 35.0359 21.2952 35.375 21.6343C35.7141 21.9734 35.8836 22.3935 35.8836 22.8948C35.8836 23.3961 35.7141 23.8163 35.375 24.1553C35.0359 24.4944 34.6157 24.664 34.1145 24.664H23.4994V28.2024C23.4994 28.7036 23.3298 29.1238 22.9907 29.4629C22.6516 29.802 22.2315 29.9715 21.7302 29.9715C21.2289 29.9715 20.8087 29.802 20.4696 29.4629C20.1306 29.1238 19.961 28.7036 19.961 28.2024Z" fill="#FA9E31"/>
</svg>
