<svg width="183" height="182" viewBox="0 0 183 182" fill="none" xmlns="http://www.w3.org/2000/svg">
<mask id="mask0_2108_578" style="mask-type:alpha" maskUnits="userSpaceOnUse" x="0" y="0" width="183" height="182">
<rect x="0.513489" width="181.973" height="181.973" fill="#D9D9D9"/>
</mask>
<g mask="url(#mask0_2108_578)">
<path d="M46.8288 112.956C40.5103 112.956 35.1396 110.744 30.7166 106.321C26.2937 101.899 24.0822 96.5278 24.0822 90.2093V67.4626C24.0822 65.3143 24.8088 63.5136 26.2621 62.0603C27.7154 60.607 29.5161 59.8804 31.6644 59.8804H122.84C123.472 55.7102 125.178 51.9823 127.958 48.6967C130.739 45.411 134.151 43.0732 138.194 41.6831L166.059 32.3949C168.081 31.7631 170.04 31.8894 171.935 32.774C173.831 33.6586 175.095 35.1119 175.726 37.1338C176.358 39.1557 176.2 41.1144 175.253 43.01C174.305 44.9056 172.82 46.1693 170.798 46.8011L142.933 56.0893C141.417 56.5948 140.185 57.511 139.237 58.8379C138.289 60.1648 137.815 61.6496 137.815 63.2924V90.2093C137.815 96.5278 135.604 101.899 131.181 106.321C126.758 110.744 121.387 112.956 115.069 112.956H46.8288ZM69.5755 150.867V135.703H24.0822C21.9339 135.703 20.1331 134.976 18.6799 133.523C17.2266 132.069 16.5 130.269 16.5 128.12C16.5 125.972 17.2266 124.171 18.6799 122.718C20.1331 121.265 21.9339 120.538 24.0822 120.538H69.5755C73.7457 120.538 77.3156 122.023 80.2853 124.993C83.255 127.962 84.7399 131.532 84.7399 135.703V150.867C84.7399 153.015 84.0133 154.816 82.56 156.269C81.1067 157.723 79.306 158.449 77.1577 158.449C75.0094 158.449 73.2086 157.723 71.7554 156.269C70.3021 154.816 69.5755 153.015 69.5755 150.867ZM99.9043 150.867V135.703C99.9043 131.532 101.389 127.962 104.359 124.993C107.329 122.023 110.899 120.538 115.069 120.538H160.562C162.71 120.538 164.511 121.265 165.964 122.718C167.418 124.171 168.144 125.972 168.144 128.12C168.144 130.269 167.418 132.069 165.964 133.523C164.511 134.976 162.71 135.703 160.562 135.703H115.069V150.867C115.069 153.015 114.342 154.816 112.889 156.269C111.436 157.723 109.635 158.449 107.487 158.449C105.338 158.449 103.537 157.723 102.084 156.269C100.631 154.816 99.9043 153.015 99.9043 150.867Z" fill="white"/>
</g>
</svg>
