<svg width="56" height="56" viewBox="0 0 56 56" fill="none" xmlns="http://www.w3.org/2000/svg">
<rect width="56" height="56" rx="10" fill="#FA9E31"/>
<mask id="mask0_2138_714" style="mask-type:alpha" maskUnits="userSpaceOnUse" x="16" y="16" width="24" height="24">
<rect x="16" y="16" width="24" height="24" fill="#D9D9D9"/>
</mask>
<g mask="url(#mask0_2138_714)">
<path d="M20 35V27.625L19 28.4C18.7667 28.5667 18.5167 28.6333 18.25 28.6C17.9833 28.5667 17.7667 28.4333 17.6 28.2C17.4333 27.9667 17.3667 27.7167 17.4 27.45C17.4333 27.1833 17.5583 26.9667 17.775 26.8L20 25.1V23C20 22.7167 20.0958 22.4792 20.2875 22.2875C20.4792 22.0958 20.7167 22 21 22C21.2833 22 21.5208 22.0958 21.7125 22.2875C21.9042 22.4792 22 22.7167 22 23V23.575L26.775 19.925C26.9583 19.7917 27.1542 19.6917 27.3625 19.625C27.5708 19.5583 27.7833 19.525 28 19.525C28.2167 19.525 28.4292 19.5583 28.6375 19.625C28.8458 19.6917 29.0417 19.7917 29.225 19.925L38.225 26.8C38.4417 26.9667 38.5667 27.1833 38.6 27.45C38.6333 27.7167 38.5667 27.9667 38.4 28.2C38.2333 28.4167 38.0167 28.5417 37.75 28.575C37.4833 28.6083 37.2417 28.5417 37.025 28.375L36 27.625V35C36 35.55 35.8042 36.0208 35.4125 36.4125C35.0208 36.8042 34.55 37 34 37H29.5C29.3667 37 29.25 36.95 29.15 36.85C29.05 36.75 29 36.6333 29 36.5V32C29 31.7167 28.9042 31.4792 28.7125 31.2875C28.5208 31.0958 28.2833 31 28 31C27.7167 31 27.4792 31.0958 27.2875 31.2875C27.0958 31.4792 27 31.7167 27 32V36.5C27 36.6333 26.95 36.75 26.85 36.85C26.75 36.95 26.6333 37 26.5 37H22C21.45 37 20.9792 36.8042 20.5875 36.4125C20.1958 36.0208 20 35.55 20 35ZM21.3 21C20.9167 21 20.6208 20.8417 20.4125 20.525C20.2042 20.2083 20.1917 19.8833 20.375 19.55C20.6583 19.0667 21.0292 18.6875 21.4875 18.4125C21.9458 18.1375 22.45 18 23 18C23.1833 18 23.3583 17.9542 23.525 17.8625C23.6917 17.7708 23.8167 17.6417 23.9 17.475C23.9833 17.325 24.0958 17.2083 24.2375 17.125C24.3792 17.0417 24.5417 17 24.725 17C25.1083 17 25.4 17.1583 25.6 17.475C25.8 17.7917 25.8083 18.1167 25.625 18.45C25.3417 18.9333 24.9708 19.3125 24.5125 19.5875C24.0542 19.8625 23.55 20 23 20C22.8167 20 22.6417 20.0417 22.475 20.125C22.3083 20.2083 22.1833 20.3417 22.1 20.525C22.0167 20.675 21.9083 20.7917 21.775 20.875C21.6417 20.9583 21.4833 21 21.3 21Z" fill="#FAFAFA"/>
</g>
</svg>
