<svg width="18" height="14" viewBox="0 0 18 14" fill="none" xmlns="http://www.w3.org/2000/svg">
<path fill-rule="evenodd" clip-rule="evenodd" d="M10.4699 0.46995C10.3295 0.610576 10.2506 0.8012 10.2506 0.99995C10.2506 1.1987 10.3295 1.38933 10.4699 1.52995L15.1899 6.24995H0.999928C0.801016 6.24995 0.610249 6.32897 0.469597 6.46962C0.328945 6.61027 0.249928 6.80104 0.249928 6.99995C0.249928 7.19886 0.328945 7.38963 0.469597 7.53028C0.610249 7.67093 0.801016 7.74995 0.999928 7.74995H15.1899L10.4699 12.4699C10.3962 12.5386 10.3371 12.6214 10.2961 12.7134C10.2552 12.8054 10.2331 12.9047 10.2313 13.0054C10.2296 13.1061 10.2481 13.2062 10.2858 13.2995C10.3235 13.3929 10.3797 13.4778 10.4509 13.549C10.5221 13.6202 10.6069 13.6764 10.7003 13.7141C10.7937 13.7518 10.8937 13.7703 10.9944 13.7685C11.0952 13.7668 11.1945 13.7447 11.2865 13.7037C11.3785 13.6627 11.4613 13.6036 11.5299 13.53L17.5299 7.52995C17.6704 7.38932 17.7493 7.1987 17.7493 6.99995C17.7493 6.8012 17.6704 6.61058 17.5299 6.46995L11.5299 0.46995C11.3893 0.3295 11.1987 0.25061 10.9999 0.25061C10.8012 0.25061 10.6106 0.3295 10.4699 0.46995Z" fill="#FA9E31"/>
</svg>
