<svg width="24" height="24" viewBox="0 0 24 24" fill="none" xmlns="http://www.w3.org/2000/svg">
<mask id="mask0_2108_755" style="mask-type:alpha" maskUnits="userSpaceOnUse" x="0" y="0" width="24" height="24">
<rect width="24" height="24" fill="#D9D9D9"/>
</mask>
<g mask="url(#mask0_2108_755)">
<path d="M16.1 13.3L14.65 11.85C14.8333 10.9667 14.6042 10.2125 13.9625 9.58751C13.3208 8.96251 12.55 8.71667 11.65 8.85001L10.2 7.40001C10.4833 7.26667 10.775 7.16667 11.075 7.10001C11.375 7.03334 11.6833 7.00001 12 7.00001C13.25 7.00001 14.3125 7.43751 15.1875 8.31251C16.0625 9.18751 16.5 10.25 16.5 11.5C16.5 11.8167 16.4667 12.125 16.4 12.425C16.3333 12.725 16.2333 13.0167 16.1 13.3ZM19.3 16.45L17.85 15.05C18.4833 14.5667 19.05 14.0292 19.55 13.4375C20.05 12.8458 20.4667 12.2 20.8 11.5C19.9667 9.81667 18.7625 8.47917 17.1875 7.48751C15.6125 6.49584 13.8833 6.00001 12 6.00001C11.5167 6.00001 11.0458 6.03334 10.5875 6.10001C10.1292 6.16667 9.66667 6.26667 9.2 6.40001L7.65 4.85001C8.35 4.56667 9.0625 4.35417 9.7875 4.21251C10.5125 4.07084 11.25 4.00001 12 4.00001C14.2833 4.00001 16.3708 4.60001 18.2625 5.80001C20.1542 7.00001 21.6 8.61667 22.6 10.65C22.6667 10.7833 22.7167 10.9208 22.75 11.0625C22.7833 11.2042 22.8 11.35 22.8 11.5C22.8 11.65 22.7875 11.7958 22.7625 11.9375C22.7375 12.0792 22.6917 12.2167 22.625 12.35C22.2583 13.1667 21.7917 13.9208 21.225 14.6125C20.6583 15.3042 20.0167 15.9167 19.3 16.45ZM12 19C9.76667 19 7.725 18.3958 5.875 17.1875C4.025 15.9792 2.56667 14.3917 1.5 12.425C1.41667 12.2917 1.35417 12.1458 1.3125 11.9875C1.27083 11.8292 1.25 11.6667 1.25 11.5C1.25 11.3333 1.26667 11.175 1.3 11.025C1.33333 10.875 1.39167 10.725 1.475 10.575C1.80833 9.90834 2.19583 9.27084 2.6375 8.66251C3.07917 8.05417 3.58333 7.50001 4.15 7.00001L2.075 4.90001C1.89167 4.70001 1.80417 4.46251 1.8125 4.18751C1.82083 3.91251 1.91667 3.68334 2.1 3.50001C2.28333 3.31667 2.51667 3.22501 2.8 3.22501C3.08333 3.22501 3.31667 3.31667 3.5 3.50001L20.5 20.5C20.6833 20.6833 20.7792 20.9125 20.7875 21.1875C20.7958 21.4625 20.7 21.7 20.5 21.9C20.3167 22.0833 20.0833 22.175 19.8 22.175C19.5167 22.175 19.2833 22.0833 19.1 21.9L15.6 18.45C15.0167 18.6333 14.425 18.7708 13.825 18.8625C13.225 18.9542 12.6167 19 12 19ZM5.55 8.40001C5.06667 8.83334 4.625 9.30834 4.225 9.82501C3.825 10.3417 3.48333 10.9 3.2 11.5C4.03333 13.1833 5.2375 14.5208 6.8125 15.5125C8.3875 16.5042 10.1167 17 12 17C12.3333 17 12.6583 16.9792 12.975 16.9375C13.2917 16.8958 13.6167 16.85 13.95 16.8L13.05 15.85C12.8667 15.9 12.6917 15.9375 12.525 15.9625C12.3583 15.9875 12.1833 16 12 16C10.75 16 9.6875 15.5625 8.8125 14.6875C7.9375 13.8125 7.5 12.75 7.5 11.5C7.5 11.3167 7.5125 11.1417 7.5375 10.975C7.5625 10.8083 7.6 10.6333 7.65 10.45L5.55 8.40001Z" fill="#8A8A8A"/>
</g>
</svg>
