<svg width="56" height="56" viewBox="0 0 56 56" fill="none" xmlns="http://www.w3.org/2000/svg">
<rect width="56" height="56" rx="10" fill="#FAFAFA"/>
<mask id="mask0_2138_727" style="mask-type:alpha" maskUnits="userSpaceOnUse" x="16" y="16" width="24" height="24">
<rect x="16" y="16" width="24" height="24" fill="#D9D9D9"/>
</mask>
<g mask="url(#mask0_2138_727)">
<path d="M21.85 33.1C22.7 32.45 23.65 31.9375 24.7 31.5625C25.75 31.1875 26.85 31 28 31C29.15 31 30.25 31.1875 31.3 31.5625C32.35 31.9375 33.3 32.45 34.15 33.1C34.7333 32.4167 35.1875 31.6417 35.5125 30.775C35.8375 29.9083 36 28.9833 36 28C36 25.7833 35.2208 23.8958 33.6625 22.3375C32.1042 20.7792 30.2167 20 28 20C25.7833 20 23.8958 20.7792 22.3375 22.3375C20.7792 23.8958 20 25.7833 20 28C20 28.9833 20.1625 29.9083 20.4875 30.775C20.8125 31.6417 21.2667 32.4167 21.85 33.1ZM28 29C27.0167 29 26.1875 28.6625 25.5125 27.9875C24.8375 27.3125 24.5 26.4833 24.5 25.5C24.5 24.5167 24.8375 23.6875 25.5125 23.0125C26.1875 22.3375 27.0167 22 28 22C28.9833 22 29.8125 22.3375 30.4875 23.0125C31.1625 23.6875 31.5 24.5167 31.5 25.5C31.5 26.4833 31.1625 27.3125 30.4875 27.9875C29.8125 28.6625 28.9833 29 28 29ZM28 38C26.6167 38 25.3167 37.7375 24.1 37.2125C22.8833 36.6875 21.825 35.975 20.925 35.075C20.025 34.175 19.3125 33.1167 18.7875 31.9C18.2625 30.6833 18 29.3833 18 28C18 26.6167 18.2625 25.3167 18.7875 24.1C19.3125 22.8833 20.025 21.825 20.925 20.925C21.825 20.025 22.8833 19.3125 24.1 18.7875C25.3167 18.2625 26.6167 18 28 18C29.3833 18 30.6833 18.2625 31.9 18.7875C33.1167 19.3125 34.175 20.025 35.075 20.925C35.975 21.825 36.6875 22.8833 37.2125 24.1C37.7375 25.3167 38 26.6167 38 28C38 29.3833 37.7375 30.6833 37.2125 31.9C36.6875 33.1167 35.975 34.175 35.075 35.075C34.175 35.975 33.1167 36.6875 31.9 37.2125C30.6833 37.7375 29.3833 38 28 38ZM28 36C28.8833 36 29.7167 35.8708 30.5 35.6125C31.2833 35.3542 32 34.9833 32.65 34.5C32 34.0167 31.2833 33.6458 30.5 33.3875C29.7167 33.1292 28.8833 33 28 33C27.1167 33 26.2833 33.1292 25.5 33.3875C24.7167 33.6458 24 34.0167 23.35 34.5C24 34.9833 24.7167 35.3542 25.5 35.6125C26.2833 35.8708 27.1167 36 28 36ZM28 27C28.4333 27 28.7917 26.8583 29.075 26.575C29.3583 26.2917 29.5 25.9333 29.5 25.5C29.5 25.0667 29.3583 24.7083 29.075 24.425C28.7917 24.1417 28.4333 24 28 24C27.5667 24 27.2083 24.1417 26.925 24.425C26.6417 24.7083 26.5 25.0667 26.5 25.5C26.5 25.9333 26.6417 26.2917 26.925 26.575C27.2083 26.8583 27.5667 27 28 27Z" fill="#8A8A8A"/>
</g>
</svg>
