<svg width="16" height="17" viewBox="0 0 16 17" fill="none" xmlns="http://www.w3.org/2000/svg">
<path d="M14.75 11.5675V7.8235C14.75 4.606 14.75 2.99875 13.7615 1.999C12.773 1 11.1815 1 8 1C4.81775 1 3.227 1 2.2385 1.999C1.25 2.99875 1.25 4.6075 1.25 7.8235V11.5682C1.25 13.8902 1.25 15.052 1.8005 15.559C2.063 15.8013 2.3945 15.9535 2.74775 15.994C3.488 16.0788 4.35275 15.3137 6.0815 13.7845C6.8465 13.1087 7.22825 12.7705 7.67 12.682C7.8875 12.637 8.1125 12.637 8.33 12.682C8.7725 12.7705 9.15425 13.1087 9.9185 13.7845C11.6472 15.3137 12.512 16.0787 13.2523 15.9932C13.6048 15.9535 13.937 15.8013 14.1995 15.559C14.75 15.052 14.75 13.8903 14.75 11.5675Z" stroke="#FAFAFA" stroke-width="1.5"/>
<path opacity="0.5" d="M10.25 4H5.75" stroke="#FAFAFA" stroke-width="1.5" stroke-linecap="round"/>
</svg>
