<svg width="30" height="26" viewBox="0 0 30 26" fill="none" xmlns="http://www.w3.org/2000/svg">
<path d="M15 4.33331L14.28 5.02665C14.3732 5.12343 14.4851 5.20041 14.6088 5.25299C14.7325 5.30557 14.8655 5.33267 15 5.33267C15.1344 5.33267 15.2674 5.30557 15.3911 5.25299C15.5148 5.20041 15.6267 5.12343 15.72 5.02665L15 4.33331ZM11.568 21.4293C9.54663 19.836 7.33729 18.28 5.58396 16.3066C3.86663 14.3706 2.66663 12.1133 2.66663 9.18265H0.666626C0.666626 12.7373 2.14663 15.4493 4.08929 17.6346C5.99596 19.7813 8.42796 21.5013 10.3293 23L11.568 21.4293ZM2.66663 9.18265C2.66663 6.31598 4.28663 3.91065 6.49863 2.89865C8.64796 1.91598 11.536 2.17598 14.28 5.02665L15.72 3.64131C12.4666 0.258648 8.68529 -0.300018 5.66663 1.07998C2.71463 2.43065 0.666626 5.56665 0.666626 9.18265H2.66663ZM10.3293 23C11.0133 23.5386 11.7466 24.112 12.4893 24.5466C13.232 24.98 14.08 25.3333 15 25.3333V23.3333C14.5866 23.3333 14.1013 23.1733 13.4986 22.82C12.8946 22.468 12.2693 21.9826 11.568 21.4293L10.3293 23ZM19.6706 23C21.572 21.5 24.004 19.7826 25.9106 17.6346C27.8533 15.448 29.3333 12.7373 29.3333 9.18265H27.3333C27.3333 12.1133 26.1333 14.3706 24.416 16.3066C22.6626 18.28 20.4533 19.836 18.432 21.4293L19.6706 23ZM29.3333 9.18265C29.3333 5.56665 27.2866 2.43065 24.3333 1.07998C21.3146 -0.300018 17.536 0.258648 14.28 3.63998L15.72 5.02665C18.464 2.17731 21.352 1.91598 23.5013 2.89865C25.7133 3.91065 27.3333 6.31465 27.3333 9.18265H29.3333ZM18.432 21.4293C17.7306 21.9826 17.1053 22.468 16.5013 22.82C15.8986 23.172 15.4133 23.3333 15 23.3333V25.3333C15.92 25.3333 16.768 24.98 17.5106 24.5466C18.2546 24.112 18.9866 23.5386 19.6706 23L18.432 21.4293Z" fill="#343434"/>
</svg>
