<svg width="26" height="30" viewBox="0 0 26 30" fill="none" xmlns="http://www.w3.org/2000/svg">
<path d="M25 20.4533V13.7973C25 8.07729 25 5.21996 23.2427 3.44263C21.4853 1.66663 18.656 1.66663 13 1.66663C7.34267 1.66663 4.51467 1.66663 2.75733 3.44263C1 5.21996 1 8.07996 1 13.7973V20.4546C1 24.5826 1 26.648 1.97867 27.5493C2.44533 27.98 3.03467 28.2506 3.66267 28.3226C4.97867 28.4733 6.516 27.1133 9.58933 24.3946C10.9493 23.1933 11.628 22.592 12.4133 22.4346C12.8 22.3546 13.2 22.3546 13.5867 22.4346C14.3733 22.592 15.052 23.1933 16.4107 24.3946C19.484 27.1133 21.0213 28.4733 22.3373 28.3213C22.964 28.2506 23.5547 27.98 24.0213 27.5493C25 26.648 25 24.5826 25 20.4533Z" stroke="#343434" stroke-width="2"/>
</svg>
