<svg width="16" height="16" viewBox="0 0 16 16" fill="none" xmlns="http://www.w3.org/2000/svg">
<path d="M8 15.5C6.9625 15.5 5.9875 15.3031 5.075 14.9094C4.1625 14.5156 3.36875 13.9813 2.69375 13.3063C2.01875 12.6313 1.48438 11.8375 1.09063 10.925C0.696875 10.0125 0.5 9.0375 0.5 8C0.5 6.9625 0.696875 5.9875 1.09063 5.075C1.48438 4.1625 2.01875 3.36875 2.69375 2.69375C3.36875 2.01875 4.1625 1.48438 5.075 1.09063C5.9875 0.696875 6.9625 0.5 8 0.5C9.0375 0.5 10.0125 0.696875 10.925 1.09063C11.8375 1.48438 12.6313 2.01875 13.3063 2.69375C13.9813 3.36875 14.5156 4.1625 14.9094 5.075C15.3031 5.9875 15.5 6.9625 15.5 8V9.0875C15.5 9.825 15.2469 10.4531 14.7406 10.9719C14.2344 11.4906 13.6125 11.75 12.875 11.75C12.4375 11.75 12.025 11.6562 11.6375 11.4688C11.25 11.2812 10.925 11.0125 10.6625 10.6625C10.3 11.025 9.89062 11.2969 9.43438 11.4781C8.97813 11.6594 8.5 11.75 8 11.75C6.9625 11.75 6.07812 11.3844 5.34688 10.6531C4.61562 9.92188 4.25 9.0375 4.25 8C4.25 6.9625 4.61562 6.07812 5.34688 5.34688C6.07812 4.61562 6.9625 4.25 8 4.25C9.0375 4.25 9.92188 4.61562 10.6531 5.34688C11.3844 6.07812 11.75 6.9625 11.75 8V9.0875C11.75 9.4125 11.8562 9.6875 12.0688 9.9125C12.2812 10.1375 12.55 10.25 12.875 10.25C13.2 10.25 13.4688 10.1375 13.6813 9.9125C13.8938 9.6875 14 9.4125 14 9.0875V8C14 6.325 13.4187 4.90625 12.2563 3.74375C11.0938 2.58125 9.675 2 8 2C6.325 2 4.90625 2.58125 3.74375 3.74375C2.58125 4.90625 2 6.325 2 8C2 9.675 2.58125 11.0938 3.74375 12.2563C4.90625 13.4187 6.325 14 8 14H11C11.2125 14 11.3906 14.0719 11.5344 14.2156C11.6781 14.3594 11.75 14.5375 11.75 14.75C11.75 14.9625 11.6781 15.1406 11.5344 15.2844C11.3906 15.4281 11.2125 15.5 11 15.5H8ZM8 10.25C8.625 10.25 9.15625 10.0312 9.59375 9.59375C10.0312 9.15625 10.25 8.625 10.25 8C10.25 7.375 10.0312 6.84375 9.59375 6.40625C9.15625 5.96875 8.625 5.75 8 5.75C7.375 5.75 6.84375 5.96875 6.40625 6.40625C5.96875 6.84375 5.75 7.375 5.75 8C5.75 8.625 5.96875 9.15625 6.40625 9.59375C6.84375 10.0312 7.375 10.25 8 10.25Z" fill="#8A8A8A"/>
</svg>
