<svg width="22" height="20" viewBox="0 0 22 20" fill="none" xmlns="http://www.w3.org/2000/svg">
<path d="M15.1 10.3L13.65 8.85001C13.8333 7.96667 13.6042 7.21251 12.9625 6.58751C12.3208 5.96251 11.55 5.71667 10.65 5.85001L9.2 4.40001C9.48333 4.26667 9.775 4.16667 10.075 4.10001C10.375 4.03334 10.6833 4.00001 11 4.00001C12.25 4.00001 13.3125 4.43751 14.1875 5.31251C15.0625 6.18751 15.5 7.25001 15.5 8.50001C15.5 8.81667 15.4667 9.12501 15.4 9.42501C15.3333 9.72501 15.2333 10.0167 15.1 10.3ZM18.3 13.45L16.85 12.05C17.4833 11.5667 18.05 11.0292 18.55 10.4375C19.05 9.84584 19.4667 9.20001 19.8 8.50001C18.9667 6.81667 17.7625 5.47917 16.1875 4.48751C14.6125 3.49584 12.8833 3.00001 11 3.00001C10.5167 3.00001 10.0458 3.03334 9.5875 3.10001C9.12917 3.16667 8.66667 3.26667 8.2 3.40001L6.65 1.85001C7.35 1.56667 8.0625 1.35417 8.7875 1.21251C9.5125 1.07084 10.25 1.00001 11 1.00001C13.2833 1.00001 15.3708 1.60001 17.2625 2.80001C19.1542 4.00001 20.6 5.61667 21.6 7.65001C21.6667 7.78334 21.7167 7.92084 21.75 8.06251C21.7833 8.20417 21.8 8.35001 21.8 8.50001C21.8 8.65001 21.7875 8.79584 21.7625 8.93751C21.7375 9.07917 21.6917 9.21667 21.625 9.35001C21.2583 10.1667 20.7917 10.9208 20.225 11.6125C19.6583 12.3042 19.0167 12.9167 18.3 13.45ZM11 16C8.76667 16 6.725 15.3958 4.875 14.1875C3.025 12.9792 1.56667 11.3917 0.5 9.42501C0.416667 9.29167 0.354167 9.14584 0.3125 8.98751C0.270833 8.82917 0.25 8.66667 0.25 8.50001C0.25 8.33334 0.266667 8.17501 0.3 8.02501C0.333333 7.87501 0.391667 7.72501 0.475 7.57501C0.808333 6.90834 1.19583 6.27084 1.6375 5.66251C2.07917 5.05417 2.58333 4.50001 3.15 4.00001L1.075 1.90001C0.891667 1.70001 0.804167 1.46251 0.8125 1.18751C0.820833 0.912506 0.916667 0.683339 1.1 0.500006C1.28333 0.316673 1.51667 0.225006 1.8 0.225006C2.08333 0.225006 2.31667 0.316673 2.5 0.500006L19.5 17.5C19.6833 17.6833 19.7792 17.9125 19.7875 18.1875C19.7958 18.4625 19.7 18.7 19.5 18.9C19.3167 19.0833 19.0833 19.175 18.8 19.175C18.5167 19.175 18.2833 19.0833 18.1 18.9L14.6 15.45C14.0167 15.6333 13.425 15.7708 12.825 15.8625C12.225 15.9542 11.6167 16 11 16ZM4.55 5.40001C4.06667 5.83334 3.625 6.30834 3.225 6.82501C2.825 7.34167 2.48333 7.90001 2.2 8.50001C3.03333 10.1833 4.2375 11.5208 5.8125 12.5125C7.3875 13.5042 9.11667 14 11 14C11.3333 14 11.6583 13.9792 11.975 13.9375C12.2917 13.8958 12.6167 13.85 12.95 13.8L12.05 12.85C11.8667 12.9 11.6917 12.9375 11.525 12.9625C11.3583 12.9875 11.1833 13 11 13C9.75 13 8.6875 12.5625 7.8125 11.6875C6.9375 10.8125 6.5 9.75001 6.5 8.50001C6.5 8.31667 6.5125 8.14167 6.5375 7.97501C6.5625 7.80834 6.6 7.63334 6.65 7.45001L4.55 5.40001Z" fill="#8A8A8A"/>
</svg>
