<svg width="22" height="15" viewBox="0 0 22 15" fill="none" xmlns="http://www.w3.org/2000/svg">
<path d="M10.9999 12C12.2499 12 13.3124 11.5625 14.1874 10.6875C15.0624 9.8125 15.4999 8.75 15.4999 7.5C15.4999 6.25 15.0624 5.1875 14.1874 4.3125C13.3124 3.4375 12.2499 3 10.9999 3C9.7499 3 8.6874 3.4375 7.8124 4.3125C6.9374 5.1875 6.4999 6.25 6.4999 7.5C6.4999 8.75 6.9374 9.8125 7.8124 10.6875C8.6874 11.5625 9.7499 12 10.9999 12ZM10.9999 10.2C10.2499 10.2 9.6124 9.9375 9.0874 9.4125C8.5624 8.8875 8.2999 8.25 8.2999 7.5C8.2999 6.75 8.5624 6.1125 9.0874 5.5875C9.6124 5.0625 10.2499 4.8 10.9999 4.8C11.7499 4.8 12.3874 5.0625 12.9124 5.5875C13.4374 6.1125 13.6999 6.75 13.6999 7.5C13.6999 8.25 13.4374 8.8875 12.9124 9.4125C12.3874 9.9375 11.7499 10.2 10.9999 10.2ZM10.9999 15C8.76657 15 6.72907 14.4 4.8874 13.2C3.04574 12 1.59157 10.4167 0.524902 8.45C0.441569 8.3 0.379069 8.14583 0.337402 7.9875C0.295736 7.82917 0.274902 7.66667 0.274902 7.5C0.274902 7.33333 0.295736 7.17083 0.337402 7.0125C0.379069 6.85417 0.441569 6.7 0.524902 6.55C1.59157 4.58333 3.04574 3 4.8874 1.8C6.72907 0.6 8.76657 0 10.9999 0C13.2332 0 15.2707 0.6 17.1124 1.8C18.9541 3 20.4082 4.58333 21.4749 6.55C21.5582 6.7 21.6207 6.85417 21.6624 7.0125C21.7041 7.17083 21.7249 7.33333 21.7249 7.5C21.7249 7.66667 21.7041 7.82917 21.6624 7.9875C21.6207 8.14583 21.5582 8.3 21.4749 8.45C20.4082 10.4167 18.9541 12 17.1124 13.2C15.2707 14.4 13.2332 15 10.9999 15ZM10.9999 13C12.8832 13 14.6124 12.5042 16.1874 11.5125C17.7624 10.5208 18.9666 9.18333 19.7999 7.5C18.9666 5.81667 17.7624 4.47917 16.1874 3.4875C14.6124 2.49583 12.8832 2 10.9999 2C9.11657 2 7.3874 2.49583 5.8124 3.4875C4.2374 4.47917 3.03324 5.81667 2.1999 7.5C3.03324 9.18333 4.2374 10.5208 5.8124 11.5125C7.3874 12.5042 9.11657 13 10.9999 13Z" fill="#8A8A8A"/>
</svg>
