<svg width="18" height="18" viewBox="0 0 18 18" fill="none" xmlns="http://www.w3.org/2000/svg">
<mask id="mask0_5022_22" style="mask-type:alpha" maskUnits="userSpaceOnUse" x="0" y="0" width="18" height="18">
<rect width="18" height="18" fill="#D9D9D9"/>
</mask>
<g mask="url(#mask0_5022_22)">
<mask id="mask1_5022_22" style="mask-type:alpha" maskUnits="userSpaceOnUse" x="0" y="0" width="18" height="18">
<rect width="18" height="18" fill="#D9D9D9"/>
</mask>
<g mask="url(#mask1_5022_22)">
<path d="M9 9C8.175 9 7.46875 8.70625 6.88125 8.11875C6.29375 7.53125 6 6.825 6 6C6 5.175 6.29375 4.46875 6.88125 3.88125C7.46875 3.29375 8.175 3 9 3C9.825 3 10.5312 3.29375 11.1187 3.88125C11.7063 4.46875 12 5.175 12 6C12 6.825 11.7063 7.53125 11.1187 8.11875C10.5312 8.70625 9.825 9 9 9ZM3 13.5V12.9C3 12.475 3.10937 12.0844 3.32812 11.7281C3.54688 11.3719 3.8375 11.1 4.2 10.9125C4.975 10.525 5.7625 10.2344 6.5625 10.0406C7.3625 9.84687 8.175 9.75 9 9.75C9.825 9.75 10.6375 9.84687 11.4375 10.0406C12.2375 10.2344 13.025 10.525 13.8 10.9125C14.1625 11.1 14.4531 11.3719 14.6719 11.7281C14.8906 12.0844 15 12.475 15 12.9V13.5C15 13.9125 14.8531 14.2656 14.5594 14.5594C14.2656 14.8531 13.9125 15 13.5 15H4.5C4.0875 15 3.73438 14.8531 3.44063 14.5594C3.14688 14.2656 3 13.9125 3 13.5ZM4.5 13.5H13.5V12.9C13.5 12.7625 13.4656 12.6375 13.3969 12.525C13.3281 12.4125 13.2375 12.325 13.125 12.2625C12.45 11.925 11.7688 11.6719 11.0813 11.5031C10.3938 11.3344 9.7 11.25 9 11.25C8.3 11.25 7.60625 11.3344 6.91875 11.5031C6.23125 11.6719 5.55 11.925 4.875 12.2625C4.7625 12.325 4.67188 12.4125 4.60313 12.525C4.53438 12.6375 4.5 12.7625 4.5 12.9V13.5ZM9 7.5C9.4125 7.5 9.76563 7.35313 10.0594 7.05937C10.3531 6.76562 10.5 6.4125 10.5 6C10.5 5.5875 10.3531 5.23438 10.0594 4.94063C9.76563 4.64688 9.4125 4.5 9 4.5C8.5875 4.5 8.23438 4.64688 7.94063 4.94063C7.64687 5.23438 7.5 5.5875 7.5 6C7.5 6.4125 7.64687 6.76562 7.94063 7.05937C8.23438 7.35313 8.5875 7.5 9 7.5Z" fill="#8A8A8A"/>
</g>
</g>
</svg>
